<?xml version="1.0" encoding="utf-8"?>
<!-- Generator: Adobe Illustrator 19.0.0, SVG Export Plug-In . SVG Version: 6.00 Build 0)  -->
<svg version="1.1" id="Calque_1" xmlns="http://www.w3.org/2000/svg" xmlns:xlink="http://www.w3.org/1999/xlink" x="0px" y="0px"
	 viewBox="-301.1 51.4 490.8 131.6" style="enable-background:new -301.1 51.4 490.8 131.6;" xml:space="preserve">
<style type="text/css">
	.st0{fill:#00CCBC;}
</style>
<g id="XMLID_88_">
</g>
<g id="XMLID_89_">
</g>
<g id="XMLID_90_">
</g>
<g id="XMLID_91_">
</g>
<g id="XMLID_92_">
</g>
<g id="XMLID_93_">
</g>
<g id="XMLID_94_">
</g>
<g id="XMLID_95_">
</g>
<g id="XMLID_96_">
</g>
<g id="XMLID_97_">
</g>
<g id="XMLID_98_">
</g>
<g id="XMLID_99_">
</g>
<g id="XMLID_100_">
</g>
<g id="XMLID_101_">
</g>
<g id="XMLID_102_">
</g>
<path class="st0" d="M-121.8,149.9h11.2l-1.9-8.7V89.5h-10.7v23.6c-3.2-3.7-7.7-5.9-12.9-5.9c-10.7,0-19,8.9-19,21.8
	c0,13,8.3,21.8,19,21.8c5.3,0,9.9-2.3,13.1-6.2L-121.8,149.9L-121.8,149.9z M89.8,118.8c2.2,0,4.2,0.6,6,1.9l5.1-11.4
	c-2.4-1.5-5.1-2.1-7.8-2.1c-4.8,0-8.9,2.2-11.4,6.3l-1.1-5.3h-11l1.8,8.2V150h10.7v-26.7C83.4,120.5,86.2,118.8,89.8,118.8
	L89.8,118.8L89.8,118.8L89.8,118.8z M121.1,139.6c-6.2,0-10.8-4.1-10.8-10.5c0-6.5,4.6-10.5,10.8-10.5c6.3,0,10.8,4,10.8,10.5
	C131.9,135.4,127.4,139.6,121.1,139.6L121.1,139.6z M-144.7,129c0-6.5,4.6-10.5,10.8-10.5c6.3,0,10.8,4,10.8,10.5
	c0,6.4-4.5,10.5-10.8,10.5C-140.1,139.6-144.7,135.4-144.7,129z M168.6,139.6c-6.2,0-10.8-4.1-10.8-10.5c0-6.5,4.6-10.5,10.8-10.5
	c6.3,0,10.8,4,10.8,10.5C179.3,135.4,174.8,139.6,168.6,139.6z M-84.6,117.9c5.5,0,9.1,2.6,10.3,7.4h-20.6
	C-93.8,120.4-90.1,117.9-84.6,117.9L-84.6,117.9z M43.3,117.9c5.5,0,9.1,2.6,10.3,7.4H32.9C34.3,120.4,37.9,117.9,43.3,117.9
	L43.3,117.9z M-9,149.9H8.3L19.5,108H7.8l-8.1,34l-8.2-33.9h-11.5L-9,149.9L-9,149.9z M-36.5,149.9h10.7V108h-10.7V149.9z
	 M-83,150.7c6,0,11.8-1.7,16.7-4.8l-4.1-9.2c-3.8,2.1-8.2,3.2-12.5,3.2c-5.6,0-9.5-2.2-11.3-6.3h30.2c0.3-1.6,0.5-3,0.5-4.9
	c0-13-9-21.6-20.9-21.6c-12.1,0-20.9,8.8-20.9,21.8C-105.4,142.2-96.6,150.7-83,150.7L-83,150.7z M189.7,129c0-13-9-21.8-21.1-21.8
	c-12.2,0-21.1,8.9-21.1,21.8s9,21.8,21.1,21.8S189.7,142,189.7,129L189.7,129z M44.8,150.8c6,0,11.8-1.6,16.7-4.8l-4.1-9.2
	c-3.8,2.1-8.2,3.2-12.5,3.2c-5.6,0-9.5-2.2-11.3-6.3h30.2c0.3-1.6,0.5-3,0.5-4.9c0-13-9-21.6-20.9-21.6c-12.1,0-20.9,8.8-20.9,21.8
	C22.4,142.4,31.2,150.8,44.8,150.8L44.8,150.8L44.8,150.8z M121.1,150.8c12.2,0,21.1-8.9,21.1-21.8s-9-21.8-21.1-21.8
	c-12.2,0-21.1,8.9-21.1,21.8S108.9,150.8,121.1,150.8L121.1,150.8z M-56.7,149.9H-46V89.5h-10.7V149.9L-56.7,149.9z M-31,102.3
	c3.7,0,6.7-3,6.7-6.8s-2.9-6.8-6.7-6.8s-6.8,3-6.8,6.8S-35,102.3-31,102.3L-31,102.3z M-214.9,51.4l-6.1,58l-10.4-48.9l-32.8,6.9
	l10.3,48.9l-47.2,10l8.4,39l83.1,17.7l19-42.5l9-85.6L-214.9,51.4L-214.9,51.4L-214.9,51.4z M-241.2,135.6c-1.7,1.6-3.9,1.4-6.4,0.6
	c-2.4-0.8-3.4-3.6-2.6-7.2c0.7-2.6,3.8-3,5.5-3c0.6,0,1.2,0.1,1.8,0.4c1.1,0.5,3,1.6,3.4,3.2C-238.9,132-239.5,134-241.2,135.6
	L-241.2,135.6L-241.2,135.6L-241.2,135.6z M-217.1,138.2c-1.3,2.2-4.5,2.5-7.8,0.9c-2.2-1.1-2.2-3.7-1.9-5.4
	c0.1-0.9,0.5-1.8,1.1-2.5c0.8-1,2.1-2.3,3.5-2.3c2.5-0.1,4.5,1,5.7,3C-215.3,133.9-215.9,136.1-217.1,138.2L-217.1,138.2
	L-217.1,138.2z"/>
</svg>
